<mxfile host="app.diagrams.net" agent="Mozilla/5.0 (Windows NT 10.0; Win64; x64) AppleWebKit/537.36 (KHTML, like Gecko) Chrome/134.0.0.0 Safari/537.36" version="26.1.1">
  <diagram name="PÃ¡gina-1" id="SyjjY-o0Pw_B15jCnwg6">
    <mxGraphModel dx="1434" dy="772" grid="1" gridSize="10" guides="1" tooltips="1" connect="1" arrows="1" fold="1" page="1" pageScale="1" pageWidth="827" pageHeight="1169" math="0" shadow="0">
      <root>
        <mxCell id="0" />
        <mxCell id="1" parent="0" />
        <mxCell id="ZNm8w5es4vCRz_L9CO8B-3" style="edgeStyle=orthogonalEdgeStyle;rounded=0;orthogonalLoop=1;jettySize=auto;html=1;entryX=0.5;entryY=0;entryDx=0;entryDy=0;strokeWidth=10;" edge="1" parent="1" source="ZNm8w5es4vCRz_L9CO8B-1" target="ZNm8w5es4vCRz_L9CO8B-2">
          <mxGeometry relative="1" as="geometry" />
        </mxCell>
        <mxCell id="ZNm8w5es4vCRz_L9CO8B-1" value="Inicio" style="ellipse;whiteSpace=wrap;html=1;fontSize=30;" vertex="1" parent="1">
          <mxGeometry x="316" width="204" height="130" as="geometry" />
        </mxCell>
        <mxCell id="ZNm8w5es4vCRz_L9CO8B-2" value="Horas = horas extra trabalhada&lt;div&gt;Minutos = contando com as horas extras&lt;/div&gt;&lt;div&gt;valor por hora = valor que ele recebe por hora extra trabalhada&lt;/div&gt;" style="shape=parallelogram;perimeter=parallelogramPerimeter;whiteSpace=wrap;html=1;fixedSize=1;strokeWidth=1;fontSize=20;" vertex="1" parent="1">
          <mxGeometry x="168" y="240" width="500" height="90" as="geometry" />
        </mxCell>
        <mxCell id="ZNm8w5es4vCRz_L9CO8B-7" style="edgeStyle=orthogonalEdgeStyle;rounded=0;orthogonalLoop=1;jettySize=auto;html=1;entryX=0.5;entryY=0;entryDx=0;entryDy=0;strokeWidth=10;" edge="1" parent="1" source="ZNm8w5es4vCRz_L9CO8B-4" target="ZNm8w5es4vCRz_L9CO8B-6">
          <mxGeometry relative="1" as="geometry" />
        </mxCell>
        <mxCell id="ZNm8w5es4vCRz_L9CO8B-4" value="horas extra = horas +(minutos/60)&lt;div&gt;&amp;nbsp;salario = (horas extra&amp;nbsp; *&amp;nbsp; valor por hora trabalhada)&lt;/div&gt;&lt;div&gt;&amp;nbsp;bonus = (salario&amp;nbsp; *&amp;nbsp; &amp;nbsp;70/100) + salario&lt;/div&gt;" style="rounded=1;whiteSpace=wrap;html=1;fontSize=20;" vertex="1" parent="1">
          <mxGeometry x="170" y="450" width="480" height="80" as="geometry" />
        </mxCell>
        <mxCell id="ZNm8w5es4vCRz_L9CO8B-5" style="edgeStyle=orthogonalEdgeStyle;rounded=0;orthogonalLoop=1;jettySize=auto;html=1;entryX=0.517;entryY=0.063;entryDx=0;entryDy=0;entryPerimeter=0;strokeWidth=10;" edge="1" parent="1" source="ZNm8w5es4vCRz_L9CO8B-2" target="ZNm8w5es4vCRz_L9CO8B-4">
          <mxGeometry relative="1" as="geometry" />
        </mxCell>
        <mxCell id="ZNm8w5es4vCRz_L9CO8B-8" style="edgeStyle=orthogonalEdgeStyle;rounded=0;orthogonalLoop=1;jettySize=auto;html=1;strokeWidth=10;" edge="1" parent="1" source="ZNm8w5es4vCRz_L9CO8B-6" target="ZNm8w5es4vCRz_L9CO8B-9">
          <mxGeometry relative="1" as="geometry">
            <mxPoint x="410" y="840" as="targetPoint" />
          </mxGeometry>
        </mxCell>
        <mxCell id="ZNm8w5es4vCRz_L9CO8B-6" value="Bonus" style="shape=hexagon;perimeter=hexagonPerimeter2;whiteSpace=wrap;html=1;fixedSize=1;fontSize=30;" vertex="1" parent="1">
          <mxGeometry x="320" y="630" width="180" height="80" as="geometry" />
        </mxCell>
        <mxCell id="ZNm8w5es4vCRz_L9CO8B-9" value="Fim" style="ellipse;whiteSpace=wrap;html=1;fontSize=30;" vertex="1" parent="1">
          <mxGeometry x="320" y="800" width="180" height="120" as="geometry" />
        </mxCell>
      </root>
    </mxGraphModel>
  </diagram>
</mxfile>
